<svg xmlns="http://www.w3.org/2000/svg" xml:space="preserve" viewBox="0 0 160.4 40.3"><g fill-rule="evenodd" clip-rule="evenodd"><path fill="#202124" d="M158.7 40.3c1 0 1.7-.9 1.7-2v-36c0-1.1-.8-2-1.7-2H1.6c-1 0-1.7.9-1.7 2v36c0 1.1.8 2 1.7 2"/><path fill="#fff" d="M1.8 1.3c-.6 0-1 .4-1 1v36c0 .6.4 1 1 1h36c.6 0 1-.4 1-1v-36c0-.6-.4-1-1-1h-36z"/><path fill="#4285f4" d="M28.5 20.5c0-.6-.1-1.3-.2-1.8h-8.5v3.5h4.8c-.2 1.1-.8 2.1-1.8 2.7v2.3h2.9c1.8-1.7 2.8-4 2.8-6.7z"/><path fill="#34a853" d="M19.8 29.3c2.4 0 4.5-.8 6-2.2l-2.9-2.3c-.8.5-1.8.9-3 .9-2.3 0-4.3-1.6-5-3.7h-3v2.3c1.4 3 4.4 5 7.9 5z"/><path fill="#fbbc05" d="M14.8 22c-.2-.5-.3-1.1-.3-1.7s.1-1.2.3-1.7v-2.3h-3c-.6 1.3-1 2.6-1 4 0 1.5.3 2.8 1 4l3-2.3z"/><path fill="#ea4335" d="M19.8 14.9c1.3 0 2.5.5 3.4 1.3l2.6-2.6c-1.6-1.5-3.6-2.3-6-2.3-3.5 0-6.6 2-8 5l3 2.3c.7-2.2 2.7-3.7 5-3.7z"/></g><path fill="#fff" d="M72.2 26.8c-.8 1.1-2 1.9-3.5 2.5s-3.1.8-5 .8-3.6-.4-5.1-1.3-2.6-2.1-3.4-3.7c-.8-1.6-1.2-3.5-1.2-5.7v-1.8c0-3.5.8-6.2 2.5-8.1 1.7-2 4-2.9 7-2.9 2.6 0 4.6.6 6.1 1.9 1.5 1.3 2.4 3.1 2.7 5.5h-3.9c-.4-2.8-2-4.1-4.8-4.1-1.8 0-3.1.6-4.1 1.9-1 1.1-1.5 3-1.5 5.5v1.8c0 2.5.5 4.4 1.6 5.8 1 1.4 2.5 2.1 4.4 2.1 2 0 3.5-.5 4.4-1.4v-4.5h-4.7v-3h8.7l-.2 8.7zm3.8-5.7c0-1.7.3-3.2 1-4.5s1.6-2.4 2.8-3.1c1.2-.7 2.6-1.1 4.1-1.1 2.3 0 4.2.7 5.6 2.2s2.2 3.4 2.3 5.9v.9c0 1.7-.3 3.2-1 4.5-.6 1.3-1.6 2.3-2.8 3.1-1.2.7-2.6 1.1-4.2 1.1-2.4 0-4.3-.8-5.8-2.4-1.3-1.6-2-3.8-2-6.4v-.2zm3.8.3c0 1.8.4 3.1 1.1 4.1s1.7 1.5 3 1.5 2.3-.5 3-1.5S88 23 88 21.1c0-1.7-.4-3.1-1.1-4.1s-1.7-1.5-3-1.5-2.2.5-3 1.5c-.7 1-1.1 2.4-1.1 4.4zm15.1-.3c0-1.7.3-3.2 1-4.5s1.6-2.4 2.8-3.1c1.2-.7 2.6-1.1 4.1-1.1 2.3 0 4.2.7 5.6 2.2s2.2 3.4 2.3 5.9v.9c0 1.7-.3 3.2-1 4.5-.6 1.3-1.6 2.3-2.8 3.1-1.2.7-2.6 1.1-4.2 1.1-2.4 0-4.3-.8-5.8-2.4-1.4-1.6-2.2-3.7-2.2-6.4.2 0 .2-.2.2-.2zm3.8.3c0 1.8.4 3.1 1.1 4.1s1.7 1.5 3 1.5 2.3-.5 3-1.5 1.1-2.5 1.1-4.4c0-1.7-.4-3.1-1.1-4.1s-1.7-1.5-3-1.5-2.2.5-3 1.5c-.7 1-1.1 2.4-1.1 4.4zm15.1-.3c0-2.6.6-4.8 1.9-6.3 1.3-1.6 2.9-2.4 5-2.4 1.9 0 3.5.7 4.6 2l.2-1.7h3.5v16.5c0 2.2-.7 4-2.1 5.3-1.4 1.3-3.3 1.9-5.6 1.9-1.3 0-2.5-.3-3.7-.8s-2.1-1.2-2.7-2l1.8-2.3c1.2 1.4 2.6 2.1 4.4 2.1 1.3 0 2.3-.3 3-1s1.1-1.7 1.1-3v-1.2c-1.1 1.2-2.6 1.8-4.4 1.8-2 0-3.6-.8-4.9-2.4-1.4-1.5-2.1-3.7-2.1-6.5zm3.9.4c0 1.7.3 3.1 1 4.1s1.7 1.5 2.9 1.5c1.5 0 2.7-.7 3.4-2v-7.5c-.7-1.3-1.9-1.9-3.4-1.9-1.3 0-2.2.5-2.9 1.5-.7.8-1 2.3-1 4.3zm19.7 8.3h-3.8V5.6h3.8v24.2zm12.2.3c-2.4 0-4.4-.8-5.9-2.3s-2.3-3.6-2.3-6.1v-.5c0-1.7.3-3.2 1-4.6.7-1.3 1.6-2.4 2.8-3.1 1.2-.7 2.5-1.1 4-1.1 2.3 0 4.1.7 5.4 2.2 1.3 1.5 1.9 3.6 1.9 6.3v1.5h-11.1c.1 1.4.6 2.5 1.4 3.3.8.8 1.9 1.2 3.1 1.2 1.8 0 3.2-.7 4.3-2.1l2.1 2c-.7 1-1.6 1.8-2.7 2.4-1.3.6-2.6.9-4 .9zm-.4-14.6c-1.1 0-1.9.4-2.6 1.1-.6.7-1.1 1.8-1.2 3.1h7.3v-.3c-.1-1.3-.4-2.2-1-2.9s-1.5-1-2.5-1z"/></svg>