<svg xmlns="http://www.w3.org/2000/svg" xml:space="preserve" viewBox="0 0 124.2 40.3"><g fill-rule="evenodd" clip-rule="evenodd"><path fill="#202124" d="M122.9 40.3c.8 0 1.3-.9 1.3-2v-36c0-1.1-.6-2-1.3-2H1.2c-.8 0-1.3.9-1.3 2v36c0 1.1.6 2 1.3 2"/><path fill="#fff" d="M1.8 1.3c-.6 0-1 .4-1 1v36c0 .6.4 1 1 1h36c.6 0 1-.4 1-1v-36c0-.6-.4-1-1-1h-36z"/><path fill="#4285f4" d="M28.5 20.5c0-.6-.1-1.3-.2-1.8h-8.5v3.5h4.8c-.2 1.1-.8 2.1-1.8 2.7v2.3h2.9c1.8-1.7 2.8-4 2.8-6.7z"/><path fill="#34a853" d="M19.8 29.3c2.4 0 4.5-.8 6-2.2l-2.9-2.3c-.8.5-1.8.9-3 .9-2.3 0-4.3-1.6-5-3.7h-3v2.3c1.4 3 4.4 5 7.9 5z"/><path fill="#fbbc05" d="M14.8 22c-.2-.5-.3-1.1-.3-1.7s.1-1.2.3-1.7v-2.3h-3c-.6 1.3-1 2.6-1 4 0 1.5.3 2.8 1 4l3-2.3z"/><path fill="#ea4335" d="M19.8 14.9c1.3 0 2.5.5 3.4 1.3l2.6-2.6c-1.6-1.5-3.6-2.3-6-2.3-3.5 0-6.6 2-8 5l3 2.3c.7-2.2 2.7-3.7 5-3.7z"/></g><path fill="#fff" d="M60.2 24.5c-7.4 6.4-13.9-3.4-9.2-10.1 2.6-3.1 9-1.9 9.2 2.6H58c-.1-2.7-3.8-3.2-5.2-1.3-2.5 3.5 0 11.7 5.2 8.1v-2.6h-2.7v-1.8h5.1l-.2 5.1zm2.2-3.3c-.4-6.7 9.9-6.6 9.2.2.5 6.6-9.9 6.7-9.2-.2zm2.2.2c-.3 4.4 5.3 4.2 4.8-.2.4-4.3-5.2-4.2-4.8.2zm8.9-.2c-.4-6.7 9.9-6.6 9.2.2.4 6.6-9.8 6.7-9.3-.1.1 0 .1-.1.1-.1zm2.2.2c-.3 4.4 5.3 4.2 4.8-.2.3-4.3-5.3-4.2-4.8.2zm8.8-.2c-.4-3.9 3.9-6.9 6.7-3.9l.1-1h2c-.4 2.4 1 11.1-1.2 12.7-1.7 1.7-5.5 1.4-7-.5l1.1-1.3c1.7 2.2 5.6 1.3 5-1.8-2.9 2.7-7.1-.4-6.7-4.2zm2.3.2c-.4 2.7 2.8 4.6 4.3 2.1v-4.4c-1.7-2.3-4.8-.6-4.3 2.3zm11.5 4.9H96V12.2h2.2c.1 0 .1 14.1.1 14.1zm7.1.2c-4.1.2-5.8-4.6-4.2-7.9 2.6-4.8 9.3-2 8.2 3.4h-6.5c0 2.8 3.7 3.5 5.1 1.4l1.2 1.2c-.8 1.2-2.3 1.9-3.8 1.9zm-.3-8.6c-1.4 0-2.1 1.1-2.2 2.5h4.3c0-1.4-.7-2.5-2.1-2.5z"/></svg>