<svg xmlns="http://www.w3.org/2000/svg" viewBox="0 0 855.7 204"><path fill="#1d9bf0" d="M222.2 51.3c.1 2.2.1 4.3.1 6.5 0 66.7-50.8 143.7-143.7 143.7-27.4 0-54.3-7.8-77.4-22.6 4 .5 8 .7 12 .7 22.7 0 44.8-7.6 62.7-21.7-21.6-.4-40.6-14.5-47.2-35.1 7.6 1.5 15.4 1.2 22.8-.9C27.9 117.1 11 96.4 11 72.4v-.6c7 3.9 14.9 6.1 22.9 6.3-22.2-14.8-29-44.3-15.6-67.4 25.6 31.5 63.5 50.7 104.1 52.8-4.1-17.5 1.5-35.9 14.6-48.2 20.3-19.1 52.3-18.1 71.4 2.2 11.3-2.2 22.1-6.4 32.1-12.3-3.8 11.7-11.7 21.6-22.2 27.9 10-1.2 19.8-3.9 29-8-6.6 10.2-15.2 19-25.1 26.2z"/><g fill="#fff"><path d="M295.8 38.4h95.5v22.8h-33.1v91.3h-28.9V61.3h-33.4V38.4z" class="st1"/><path d="m403.7 152.6-21.9-80.4h26.4l9.6 47.9 1.1 7.6h.3c.4-3.6.8-6.2 1.1-7.6L432 72.2h23.2l11.7 47.9c.3 1.4.7 3.9 1.1 7.6h.3c.1-1.2.3-2.5.6-4.1.3-1.6.5-2.7.6-3.5l9.6-47.9h26.4l-21.7 80.4h-26.9l-11.6-43.9c-1-4-1.5-6.9-1.6-8.7h-.5c0 1.6-.5 4.5-1.4 8.7l-11.6 43.9h-26.5zM520.2 58c-2.8-2.6-4.2-6-4.2-10.2 0-4.3 1.4-7.7 4.2-10.3 2.8-2.6 6.4-3.9 10.8-3.9s8 1.3 10.8 3.9c2.8 2.6 4.2 6 4.2 10.3 0 4.2-1.4 7.6-4.2 10.2-2.8 2.6-6.4 3.9-10.8 3.9s-8-1.3-10.8-3.9zm24.6 94.6h-27.7V72.2h27.7v80.4zM619 90.4h-19.5v29.1c0 4 1 7 3 9.1 2 2.1 5 3.1 8.9 3.1 2.6 0 5.1-.3 7.6-.8v21.5c-6 1.1-11.1 1.6-15.3 1.6-10.9 0-19-2.3-24.1-6.9-5.1-4.6-7.7-11.5-7.7-20.7v-36h-14.1V72.2h14.1V52.9l27.7-5.9v25.2H619v18.2zM686.2 90.4h-19.5v29.1c0 4 1 7 3 9.1 2 2.1 5 3.1 8.9 3.1 2.6 0 5.1-.3 7.6-.8v21.5c-6 1.1-11.1 1.6-15.3 1.6-10.9 0-19-2.3-24.1-6.9-5.1-4.6-7.7-11.5-7.7-20.7v-36H625V72.2h14.1V52.9l27.7-5.9v25.2h19.5v18.2zM777 118.3h-56.8c.1 5.3 1.8 9.4 5.1 12.5 3.3 3.1 7.7 4.7 13 4.7 4.1 0 7.6-.8 10.7-2.5 3.1-1.7 5.3-4.3 6.8-7.8l20.1 8.5c-2.9 6.6-7.7 11.8-14.5 15.4s-14.6 5.4-23.5 5.4c-13.7 0-24.5-3.6-32.3-10.9-7.8-7.3-11.7-17.4-11.7-30.4 0-8.7 1.7-16.3 5.1-22.8 3.4-6.5 8.3-11.5 14.7-15 6.4-3.5 13.8-5.2 22.3-5.2 13.1 0 23.2 3.6 30.2 10.7 7.1 7.1 10.6 17.2 10.6 30.1v7.3zm-26.7-14.9c0-5.6-1.3-9.8-3.8-12.8-2.5-2.9-6.1-4.4-10.9-4.4-4.8 0-8.5 1.5-11.2 4.5-2.6 3-4 7.2-4.3 12.7h30.2zM817.4 93.3c2.1-7.4 5.5-13.1 10.1-17 4.6-4 10.4-5.9 17.4-5.9h1.9v26.2c-2.8-.2-4.7-.3-5.8-.3-6.8 0-11.9 1.6-15.4 4.8-2.4 2.1-4 4.8-5 8s-1.4 6.9-1.4 11.3v32.3h-27.7V72.2h25.9v21.1z" class="st1"/></g></svg>