<svg xmlns="http://www.w3.org/2000/svg" viewBox="0 0 480.39 97.41" fill="#fff">
<path d="M189.58,41.69H159.32a1.42,1.42,0,0,0-1.42,1.42V57.9a1.43,1.43,0,0,0,1.42,1.42h11.8V77.71s-2.65.9-10,.9c-8.64,0-20.72-3.16-20.72-29.72S153,18.82,164.8,18.82c10.23,0,14.63,1.8,17.43,2.67a1.43,1.43,0,0,0,1.7-1.39L187.3,5.8a1.31,1.31,0,0,0-.54-1.1c-1.13-.82-8.08-4.7-25.62-4.7-20.2,0-40.93,8.6-40.93,49.92s23.73,47.49,43.73,47.49c16.56,0,26.6-7.08,26.6-7.08a1.23,1.23,0,0,0,.46-1.07V43.11A1.41,1.41,0,0,0,189.58,41.69Z"/>
<path d="M345.57,5a1.41,1.41,0,0,0-1.41-1.42h-17A1.41,1.41,0,0,0,325.71,5V37.89H299.15V5a1.41,1.41,0,0,0-1.41-1.42h-17A1.42,1.42,0,0,0,279.29,5V94.13a1.43,1.43,0,0,0,1.41,1.43h17a1.42,1.42,0,0,0,1.41-1.43V56h26.56l0,38.15a1.42,1.42,0,0,0,1.41,1.43h17.08a1.42,1.42,0,0,0,1.41-1.43Z"/>
<path d="M221.74,16.65a11,11,0,1,0-11,11.11A11,11,0,0,0,221.74,16.65Z"/>
<path d="M220.52,75.32V34.15a1.42,1.42,0,0,0-1.41-1.42h-17a1.63,1.63,0,0,0-1.48,1.59v59c0,1.74,1.08,2.25,2.48,2.25h15.3c1.68,0,2.09-.82,2.09-2.27Z"/>
<path d="M410.34,32.87H393.42a1.41,1.41,0,0,0-1.4,1.42V78a19.14,19.14,0,0,1-10.4,3.14c-6.1,0-7.71-2.76-7.71-8.74V34.29a1.42,1.42,0,0,0-1.41-1.42H355.34a1.42,1.42,0,0,0-1.41,1.42v41c0,17.74,9.88,22.08,23.48,22.08,11.15,0,20.15-6.17,20.15-6.17s.43,3.25.62,3.64a1.49,1.49,0,0,0,1.24.77l10.92,0a1.42,1.42,0,0,0,1.41-1.42V34.29A1.42,1.42,0,0,0,410.34,32.87Z"/>
<path d="M456.56,30.86a31.76,31.76,0,0,0-16.14,4.29V5A1.41,1.41,0,0,0,439,3.53H421.92A1.42,1.42,0,0,0,420.51,5V94.13a1.43,1.43,0,0,0,1.41,1.43h11.86A1.42,1.42,0,0,0,435,94.8a28.4,28.4,0,0,0,.72-4.11s7,6.62,20.22,6.62c15.53,0,24.43-7.88,24.43-35.37S466.17,30.86,456.56,30.86Zm-6.67,50.25A20.31,20.31,0,0,1,440,78.27V50a22.54,22.54,0,0,1,8.74-2.84c6.09-.54,12,1.3,12,15.82C460.74,78.33,458.09,81.36,449.89,81.11Z"/>
<path d="M269.5,32.72H256.72l0-16.88c0-.64-.33-1-1.07-1H238.21c-.67,0-1,.3-1,.95V33.28s-8.73,2.11-9.32,2.28a1.41,1.41,0,0,0-1,1.36v11a1.42,1.42,0,0,0,1.41,1.43h8.93V75.69c0,19.6,13.75,21.52,23,21.52a38.91,38.91,0,0,0,10.15-1.67,1.31,1.31,0,0,0,.8-1.28V82.2a1.43,1.43,0,0,0-1.41-1.42c-.74,0-2.65.3-4.61.3-6.28,0-8.41-2.92-8.41-6.7V49.31H269.5a1.43,1.43,0,0,0,1.42-1.43V34.15A1.43,1.43,0,0,0,269.5,32.72Z"/>
<path fill-rule="evenodd" d="M49.89,0A49.89,49.89,0,0,0,34.12,97.22c2.49.46,3.4-1.08,3.4-2.4s0-5.12-.06-9.28c-13.88,3-16.81-5.89-16.81-5.89-2.27-5.77-5.54-7.3-5.54-7.3-4.53-3.1.34-3,.34-3,5,.35,7.65,5.14,7.65,5.14,4.45,7.62,11.67,5.42,14.52,4.15a10.64,10.64,0,0,1,3.16-6.68C29.7,70.67,18.05,66.4,18.05,47.28a19.3,19.3,0,0,1,5.14-13.39c-.51-1.26-2.22-6.33.49-13.2,0,0,4.19-1.34,13.72,5.11a47.27,47.27,0,0,1,25,0c9.53-6.45,13.71-5.11,13.71-5.11,2.71,6.87,1,11.94.49,13.2a19.25,19.25,0,0,1,5.13,13.39c0,19.16-11.67,23.38-22.78,24.61,1.79,1.55,3.39,4.59,3.39,9.24,0,6.68-.06,12.05-.06,13.69,0,1.33.9,2.89,3.43,2.4A49.9,49.9,0,0,0,49.89,0Z"/>
<path d="M18.89,71.63a.63.63,0,0,1-.85.15c-.36-.16-.57-.5-.45-.75s.5-.33.86-.16.57.51.44.76Z"/>
<path d="M20.92,73.88a.92.92,0,0,1-1.17-1.27c.25-.22.7-.11,1,.23s.39.82.15,1Z"/>
<path d="M22.88,76.75c-.3.22-.8,0-1.11-.43a.87.87,0,0,1,0-1.19c.31-.21.81,0,1.12.42s.3,1,0,1.2Z"/>
<path d="M25.58,79.53a1,1,0,0,1-1.29-.19A1,1,0,0,1,24,78.06c.28-.3.86-.21,1.29.19s.57,1,.28,1.28Z"/>
<path d="M29.29,81.14c-.12.39-.68.57-1.24.4s-.94-.63-.82-1,.68-.58,1.25-.4.93.62.81,1Z"/>
<path d="M33.38,81.44c0,.41-.47.75-1.06.76s-1.08-.32-1.09-.73.47-.75,1.07-.76,1.08.32,1.08.73Z"/>
<path d="M37.18,80.79c.07.4-.35.82-.93.93s-1.12-.15-1.19-.54.34-.83.92-.93,1.12.13,1.2.54Z"/>
</svg>