<svg xmlns="http://www.w3.org/2000/svg" viewBox="0 0 1550 380"><g fill="#fff"><path d="M580 170h-70v20h70v80H470l-40-40V20h80v70h70zM880 270H640l-40-40V90h80v100h20V90h80v100h20V90h80zM900 90h80v180h-80zM900 20h80v50h-80zM1150 170h-70v20h70v80h-110l-40-40V20h80v70h70zM1330 170h-80v20h80v80h-120l-40-40V130l40-40h120zM1530 270h-80V170h-20v100h-80V20h80v70h60l40 40zM298.6 176.4l-54.3 54.3H190l-47.5 47.5v-47.5H81.4V27.1h217.2z"/></g><g fill="#9146ff"><path d="M1500 70h-50V0h-109.8l-50.5 70H1200l-30 30V70h-70V0H880v70H570.5L520 0H410v240l140 140h140v-40l40 40h270v-40l40 40h130v-40l40 40h250l90-90V120l-50-50zM580 170h-70v20h70v80H470l-40-40V20h80v70h70v80zm300 100H640l-40-40V90h80v100h20V90h80v100h20V90h80v180zm100 0h-80V90h80v180zm0-200h-80V20h80v50zm170 100h-70v20h70v80h-110l-40-40V20h80v70h70v80zm180 0h-80v20h80v80h-120l-40-40V130l40-40h120v80zm200 100h-80V170h-20v100h-80V20h80v70h60l40 40v140zM67.9 0 0 67.9v244.3h81.4V380l67.9-67.9h54.3L325.7 190V0H67.9zm230.7 176.4-54.3 54.3H190l-47.5 47.5v-47.5H81.4V27.1h217.1v149.3z"/><path d="M230.7 74.6h27.1V156h-27.1zM156.1 74.6h27.1V156h-27.1z"/></g></svg>