<svg xmlns="http://www.w3.org/2000/svg" viewBox="0 0 1550 380">
	<g fill="white">
		<polygon
			points="580,170 510,170 510,190 580,190 580,270 470,270 430,230 430,20 510,20 510,90 580,90"
		/>
		<polygon
			points="880,270 640,270 600,230 600,90 680,90 680,190 700,190 700,90 780,90 780,190 800,190 800,90 880,90"
		/>
		<rect x="900" y="90" width="80" height="180" />
		<rect x="900" y="20" width="80" height="50" />
		<polygon
			points="1150,170 1080,170 1080,190 1150,190 1150,270 1040,270 1000,230 1000,20 1080,20 1080,90 1150,90"
		/>
		<polygon
			points="1330,170 1250,170 1250,190 1330,190 1330,270 1210,270 1170,230 1170,130 1210,90 1330,90"
		/>
		<polygon
			points="1530,270 1450,270 1450,170 1430,170 1430,270 1350,270 1350,20 1430,20 1430,90 1490,90 1530,130"
		/>
		<polygon
			points="298.6,176.4 244.3,230.7 190,230.7 142.5,278.2 142.5,230.7 81.4,230.7 81.4,27.1 298.6,27.1"
		/>
	</g>
	<g fill="#9146ff">
		<path
			d="M1500,70h-50V0h-109.8l-50.5,70H1200l-30,30V70h-70V0H880v70H570.5L520,0H410v240l140,140h140v-40l40,40h270
	v-40l40,40h130v-40l40,40h250l90-90V120L1500,70z M580,170h-70v20h70v80H470l-40-40V20h80v70h70V170z M880,270H640l-40-40V90h80v100
	h20V90h80v100h20V90h80V270z M980,270h-80V90h80V270z M980,70h-80V20h80V70z M1150,170h-70v20h70v80h-110l-40-40V20h80v70h70V170z
	 M1330,170h-80v20h80v80h-120l-40-40V130l40-40h120V170z M1530,270h-80V170h-20v100h-80V20h80v70h60l40,40V270z"
		/>
		<path
			d="M67.9,0L0,67.9v244.3h81.4V380l67.9-67.9h54.3L325.7,190V0H67.9z M298.6,176.4l-54.3,54.3H190l-47.5,47.5 v-47.5H81.4V27.1h217.1V176.4z"
		/>
		<rect x="230.7" y="74.6" width="27.1" height="81.4" />
		<rect x="156.1" y="74.6" width="27.1" height="81.4" />
	</g>
</svg>
